HIERARCHY
ROOT Hips
{
	OFFSET 153.460495 90.984810 357.406311
	CHANNELS 6 Xposition Yposition Zposition Zrotation Yrotation Xrotation 
	JOINT LeftUpLeg
	{
		OFFSET 0.103456 1.857840 10.548501
		CHANNELS 3 Xrotation Yrotation Zrotation
		JOINT LeftLeg
		{
			OFFSET 43.499992 -0.000038 -0.000006
			CHANNELS 3 Xrotation Yrotation Zrotation
			JOINT LeftFoot
			{
				OFFSET 42.372196 0.000031 0.000002
				CHANNELS 3 Xrotation Yrotation Zrotation
				JOINT LeftToe
				{
					OFFSET 17.299974 -0.000010 -0.000017
					CHANNELS 3 Xrotation Yrotation Zrotation
					End Site
					{
						OFFSET 0.000000 0.000000 0.000000
					}
				}
			}
		}
	}
	JOINT RightUpLeg
	{
		OFFSET 0.103462 1.857831 -10.548510
		CHANNELS 3 Xrotation Yrotation Zrotation
		JOINT RightLeg
		{
			OFFSET 43.500046 -0.000015 0.000008
			CHANNELS 3 Xrotation Yrotation Zrotation
			JOINT RightFoot
			{
				OFFSET 42.372265 -0.000015 0.000004
				CHANNELS 3 Xrotation Yrotation Zrotation
				JOINT RightToe
				{
					OFFSET 17.299995 -0.000004 0.000013
					CHANNELS 3 Xrotation Yrotation Zrotation
					End Site
					{
						OFFSET 0.000000 0.000000 0.000000
					}
				}
			}
		}
	}
	JOINT Spine
	{
		OFFSET 6.901966 -2.603716 -0.000002
		CHANNELS 3 Xrotation Yrotation Zrotation
		JOINT Spine1
		{
			OFFSET 12.588102 -0.000001 0.000005
			CHANNELS 3 Xrotation Yrotation Zrotation
			JOINT Spine2
			{
				OFFSET 12.343201 -0.000023 -0.000011
				CHANNELS 3 Xrotation Yrotation Zrotation
				JOINT Neck
				{
					OFFSET 25.832901 0.000011 0.000007
					CHANNELS 3 Xrotation Yrotation Zrotation
					JOINT Head
					{
						OFFSET 11.766600 -0.000002 0.000002
						CHANNELS 3 Xrotation Yrotation Zrotation
						End Site
						{
							OFFSET 0.000000 0.000000 0.000000
						}
					}
				}
				JOINT LeftShoulder
				{
					OFFSET 19.745907 -1.480350 6.000119
					CHANNELS 3 Xrotation Yrotation Zrotation
					JOINT LeftArm
					{
						OFFSET 11.284122 -0.000013 -0.000023
						CHANNELS 3 Xrotation Yrotation Zrotation
						JOINT LeftForeArm
						{
							OFFSET 33.000057 0.000005 0.000025
							CHANNELS 3 Xrotation Yrotation Zrotation
							JOINT LeftHand
							{
								OFFSET 25.199997 0.000020 0.000019
								CHANNELS 3 Xrotation Yrotation Zrotation
								End Site
								{
									OFFSET 0.000000 0.000000 0.000000
								}
							}
						}
					}
				}
				JOINT RightShoulder
				{
					OFFSET 19.746096 -1.480352 -6.000062
					CHANNELS 3 Xrotation Yrotation Zrotation
					JOINT RightArm
					{
						OFFSET 11.284150 0.000007 -0.000012
						CHANNELS 3 Xrotation Yrotation Zrotation
						JOINT RightForeArm
						{
							OFFSET 33.000092 0.000019 0.000012
							CHANNELS 3 Xrotation Yrotation Zrotation
							JOINT RightHand
							{
								OFFSET 25.199797 0.000118 0.000427
								CHANNELS 3 Xrotation Yrotation Zrotation
								End Site
								{
									OFFSET 0.000000 0.000000 0.000000
								}
							}
						}
					}
				}
			}
		}
	}
}
MOTION
Frames: 10
Frame Time: 0.033333
-142.546005 90.833839 542.418396 91.264448 2.305811 -5.631714 165.239966 2.571701 171.122180 -23.015494 2.623409 -5.293492 83.842519 2.962554 -3.274311 21.454562 0.003107 0.000017 154.718265 9.226396 -173.113426 -78.105501 -3.913076 4.662055 71.343716 -1.214938 6.094968 21.454557 -0.003091 0.000001 6.315669 -1.481299 -0.717798 2.638250 -2.946166 -1.468928 2.319794 -2.955119 -1.451100 11.430117 -6.169587 -3.733440 -9.328704 14.249953 -8.728736 -175.645022 -74.623307 -5.851077 -5.064454 51.591086 20.004996 -49.307272 -14.831413 1.746843 3.304510 -7.855286 4.595327 -154.220972 81.093709 27.685041 18.011030 -66.873364 -58.899788 -24.634764 6.940513 -0.614371 11.618559 -13.759939 -4.261600 
-145.261597 90.985580 542.770874 91.639132 2.184822 -6.258484 166.752334 2.660706 170.261631 -22.951896 2.740445 -5.096365 85.345208 2.797199 -3.541309 21.454557 0.003108 0.000017 150.647076 8.327101 -172.415599 -76.443545 -3.478106 6.380002 72.237167 -2.534336 6.024447 21.454557 -0.003095 0.000001 6.267824 -1.352326 -1.010509 2.547503 -2.682554 -2.050419 2.229256 -2.695024 -2.034182 11.011356 -5.372045 -3.617947 -8.736188 13.521293 -8.241436 -179.319103 -75.622803 -2.103992 -8.415284 51.393127 17.839607 -50.062527 -15.315191 1.803395 3.303194 -6.505188 5.914117 -152.040994 80.939019 29.898935 17.884681 -66.877142 -58.697703 -25.815643 7.930473 -0.697872 11.145138 -11.257052 -3.025010 
-147.987198 90.948174 543.069519 92.006439 2.293449 -6.801880 168.039333 2.915695 169.059572 -23.299001 2.943547 -4.681354 86.985321 2.486450 -3.838794 21.454562 0.003107 0.000017 147.076007 7.585907 -172.228261 -72.877162 -2.681665 6.347051 73.134387 -2.614430 5.933983 21.454551 -0.003089 -0.000002 6.212729 -1.272339 -1.292516 2.441914 -2.517753 -2.611567 2.123839 -2.533608 -2.596321 10.645347 -4.483947 -3.481772 -8.441605 12.832640 -7.772512 177.248040 -76.012752 1.398938 -11.606412 50.238388 15.973039 -50.994056 -15.496584 1.846011 3.525820 -5.520977 6.068052 -151.586896 80.532404 30.371133 17.239618 -66.415031 -58.407987 -27.249395 8.865708 -0.782744 9.481311 -7.424761 -1.005601 
-150.766602 90.785988 543.293518 92.329206 2.482946 -7.058411 169.244629 3.258497 167.935897 -23.915771 3.223795 -4.150469 88.707942 2.096118 -4.216861 21.454560 0.003107 0.000018 144.402357 7.086197 -172.147637 -67.598608 -1.687246 5.747083 73.459074 -1.971720 6.796207 21.454551 -0.003092 -0.000001 6.165477 -1.205904 -1.602084 2.352189 -2.379804 -3.228416 2.034353 -2.399381 -3.214001 10.348923 -3.465542 -3.411501 -8.440992 12.082889 -7.370359 174.412104 -76.388679 4.287113 -14.553455 48.895695 14.106139 -51.708815 -15.527342 1.871840 3.047718 -5.042946 6.541454 -152.126959 80.217812 29.831077 16.742459 -66.080919 -56.993837 -29.088973 9.727929 -0.871506 8.755735 -3.601313 -0.516870 
-153.683197 90.443550 543.422729 92.558496 2.806933 -7.230285 170.424052 3.673095 167.319212 -24.972073 3.323786 -3.845554 90.658228 1.882174 -4.611961 21.454555 0.003111 0.000018 142.439647 6.612000 -171.683389 -61.174200 -1.063555 5.229016 73.565918 -1.404749 7.546537 21.454553 -0.003093 -0.000000 6.129300 -1.161144 -1.871330 2.283785 -2.286087 -3.765352 1.966171 -2.308906 -3.751498 10.018231 -2.566687 -3.494325 -8.676439 11.431167 -7.191178 171.172067 -76.835981 7.580118 -16.952692 47.678054 12.166893 -52.363601 -15.355191 1.882336 2.571022 -4.542797 7.303144 -152.282988 80.069119 29.677022 16.475354 -66.044555 -55.589342 -31.191111 10.752142 -0.978375 8.255519 -0.028357 -0.159046 
-156.569794 90.156708 543.538208 92.919751 2.964797 -7.405579 171.673649 4.001009 167.027276 -25.599233 3.407473 -3.697942 92.267222 1.788236 -4.958048 21.454555 0.003110 0.000018 141.372881 5.826796 -171.130458 -53.092095 -0.316490 5.052978 72.927241 -1.593471 6.506984 21.454557 -0.003090 -0.000001 6.077941 -1.085635 -2.054285 2.181880 -2.133411 -4.128811 1.864429 -2.158421 -4.115880 9.724180 -1.944334 -3.661636 -9.032797 11.077383 -7.225663 167.603990 -77.137069 11.207061 -19.052727 46.821302 10.271554 -52.971252 -15.544141 1.915625 2.743160 -3.745990 7.452647 -151.395992 79.975436 30.580106 15.408386 -66.132111 -54.355868 -32.937539 11.762474 -1.079915 7.547144 2.601157 0.045164 
-159.516205 89.788742 543.608582 93.313799 3.355343 -7.659424 173.035889 4.625303 166.887626 -25.945107 3.519095 -3.696193 93.676823 1.793699 -5.329370 21.454562 0.003109 0.000017 140.926023 5.056899 -170.439707 -44.211756 -0.040644 5.083091 72.184253 -1.814981 5.809656 21.454555 -0.003088 -0.000002 5.986609 -1.079032 -2.148583 2.000738 -2.121912 -4.315651 1.683365 -2.148046 -4.302787 9.660306 -1.400905 -3.846212 -9.350752 10.949577 -7.343707 163.501956 -77.266310 15.379875 -20.776018 46.230269 8.498237 -53.106575 -15.590578 1.923360 2.615622 -4.167473 6.442290 -150.199890 79.722965 31.802034 14.038234 -66.038183 -53.227828 -34.629069 12.664252 -1.175324 7.299877 4.018980 0.070604 
-162.518204 89.374397 543.585693 93.762392 3.635266 -7.914489 174.530704 5.182295 166.863748 -26.023794 3.696630 -3.779162 94.986669 1.853647 -5.754896 21.454557 0.003109 0.000017 141.422605 4.027097 -168.179953 -34.187764 -0.827237 4.189478 71.756902 -1.407360 4.994861 21.454555 -0.003094 0.000000 5.884240 -1.026876 -2.182473 1.794587 -2.020992 -4.380712 1.477287 -2.047522 -4.368458 9.217602 -1.430890 -4.046491 -9.411923 11.216152 -7.640513 161.422095 -77.328226 17.495149 -22.768922 46.025752 6.719030 -52.642228 -15.611963 1.908960 2.567189 -4.478904 6.506466 -148.556915 79.700904 33.470936 13.068805 -66.051638 -52.237792 -36.417524 13.513651 -1.271693 6.971216 4.085583 -0.686492 
-165.564896 88.861290 543.427979 94.115888 3.917093 -7.821717 176.184183 5.661805 167.174126 -26.064994 3.789054 -3.805115 96.237174 1.886491 -6.157655 21.454560 0.003109 0.000017 142.612369 2.970993 -164.728125 -24.059357 -2.138931 3.012680 70.985705 -0.534825 4.921449 21.454553 -0.003094 0.000000 5.812498 -0.969385 -2.254910 1.650126 -1.907797 -4.523482 1.332894 -1.935186 -4.511910 8.576001 -1.784435 -4.284373 -9.486203 11.410377 -8.002507 160.652101 -77.377396 18.275901 -24.362165 46.246173 5.012162 -52.281314 -15.513677 1.890164 2.533948 -4.789747 7.041895 -148.430884 80.166866 33.584009 12.637137 -66.272581 -51.110517 -37.858714 14.059699 -1.342035 6.629779 3.154542 -2.291560 
-168.733597 88.258659 543.083679 94.381241 4.408757 -7.113282 177.823565 6.067002 167.549035 -26.430897 3.860074 -3.403685 97.135324 1.619851 -6.564534 21.454558 0.003109 0.000017 143.935199 2.240401 -162.568338 -15.928742 -3.190368 2.668385 71.875911 -0.421066 4.589596 21.454550 -0.003087 -0.000001 5.737906 -0.995965 -2.354793 1.503655 -1.962619 -4.722433 1.186540 -1.991207 -4.710531 8.202451 -1.413103 -4.812309 -9.981095 10.908861 -8.402434 158.729020 -77.541553 20.224125 -25.489527 47.049673 4.117847 -51.579570 -15.443225 1.861900 2.823785 -5.890018 6.038929 -148.483859 80.156334 33.531007 12.276790 -66.002433 -50.342404 -39.016213 14.228249 -1.382013 6.551266 2.692665 -2.795547 
